<svg width="226" height="226" fill="none" xmlns="http://www.w3.org/2000/svg"><path d="M187 116c0 40.87-33.13 74-74 74s-74-33.13-74-74 33.13-74 74-74 74 33.13 74 74z" fill="#F0F1F2"/><mask id="a" maskUnits="userSpaceOnUse" x="39" y="36" width="148" height="154"><path d="M187 116c0 40.87-33.13 74-74 74s-74-33.13-74-74V36h148v80z" fill="#fff"/></mask><g filter="url(#filter0_d)" mask="url(#a)"><path d="M58.7708 190H166.239c2.083 0 3.77-2.098 3.761-4.688V47c0-2.2091-1.791-4-4-4H59c-2.2091 0-4 1.7909-4 4v138.312c0 2.59 1.6874 4.688 3.7708 4.688z" fill="#fff"/></g><path fill-rule="evenodd" clip-rule="evenodd" d="M148.223 137.277c-.177-.177-.417-.277-.667-.277h-6.612c-.521 0-.944.423-.944.944v6.612c0 .25.1.49.277.667l8.5 8.5c.368.369.966.369 1.335 0l6.611-6.611c.369-.369.369-.967 0-1.335l-8.5-8.5zm-4.917 4.445c-.783 0-1.417-.634-1.417-1.416 0-.783.634-1.417 1.417-1.417.782 0 1.416.634 1.416 1.417 0 .782-.634 1.416-1.416 1.416z" fill="#D2D5D9"/><path d="M98 143.5c0-1.381 1.0208-2.5 2.28-2.5h16.44c1.259 0 2.28 1.119 2.28 2.5s-1.021 2.5-2.28 2.5h-16.44c-1.2592 0-2.28-1.119-2.28-2.5zM98 152.5c0-1.381 1.0399-2.5 2.323-2.5h25.354c1.283 0 2.323 1.119 2.323 2.5s-1.04 2.5-2.323 2.5h-25.354c-1.2831 0-2.323-1.119-2.323-2.5zM81.9038 141.688c0 2.589-1.9716 4.688-4.4038 4.688-2.4322 0-4.4038-2.099-4.4038-4.688 0-2.589 1.9716-4.688 4.4038-4.688 2.4322 0 4.4038 2.099 4.4038 4.688zM69.6988 151.966c1.4458-1.211 4.323-3.17 7.8012-3.17 3.4782 0 6.3554 1.959 7.8012 3.17.6453.54.8466 1.453.5918 2.284l-.3478 1.134c-.2957.964-1.1404 1.616-2.0931 1.616H71.5479c-.9527 0-1.7974-.652-2.0931-1.616l-.3478-1.134c-.2548-.831-.0535-1.744.5918-2.284z" fill="#D2D5D9"/><rect x="63" y="51" width="101" height="40" rx="4" fill="#F0F1F2"/><path d="M81.9038 65.688c0 2.5891-1.9716 4.688-4.4038 4.688-2.4322 0-4.4038-2.0989-4.4038-4.688 0-2.5891 1.9716-4.688 4.4038-4.688 2.4322 0 4.4038 2.0989 4.4038 4.688zM69.6988 75.9655c1.4458-1.2104 4.323-3.1695 7.8012-3.1695 3.4782 0 6.3554 1.9591 7.8012 3.1695.6453.5403.8466 1.4536.5918 2.2844l-.3478 1.1337C85.2495 80.3477 84.4048 81 83.4521 81H71.5479c-.9527 0-1.7974-.6523-2.0931-1.6164l-.3478-1.1337c-.2548-.8308-.0535-1.7441.5918-2.2844z" fill="#108060"/><path fill-rule="evenodd" clip-rule="evenodd" d="M148.223 64.2766c-.177-.1771-.417-.2766-.667-.2766h-6.612c-.521 0-.944.4228-.944.9444v6.6112c0 .2504.1.4907.277.6678l8.5 8.5c.368.3688.966.3688 1.335 0l6.611-6.6111c.369-.3689.369-.9669 0-1.3357l-8.5-8.5zm-4.917 4.4456c-.783 0-1.417-.6342-1.417-1.4166 0-.7824.634-1.4167 1.417-1.4167.782 0 1.416.6343 1.416 1.4167 0 .7824-.634 1.4166-1.416 1.4166z" fill="#108060"/><path d="M98 66.5c0-1.3807 1.0208-2.5 2.28-2.5h16.44c1.259 0 2.28 1.1193 2.28 2.5s-1.021 2.5-2.28 2.5h-16.44C99.0208 69 98 67.8807 98 66.5zM98 75.5c0-1.3807 1.0399-2.5 2.323-2.5h25.354c1.283 0 2.323 1.1193 2.323 2.5s-1.04 2.5-2.323 2.5h-25.354C99.0399 78 98 76.8807 98 75.5z" fill="#B6BABF"/><path d="M82.9038 104.688c0 2.589-1.9716 4.688-4.4038 4.688-2.4322 0-4.4038-2.099-4.4038-4.688 0-2.589 1.9716-4.688 4.4038-4.688 2.4322 0 4.4038 2.099 4.4038 4.688zM70.6988 114.966c1.4458-1.211 4.323-3.17 7.8012-3.17 3.4782 0 6.3554 1.959 7.8012 3.17.6453.54.8466 1.453.5918 2.284l-.3478 1.134c-.2957.964-1.1404 1.616-2.0931 1.616H72.5479c-.9527 0-1.7974-.652-2.0931-1.616l-.3478-1.134c-.2548-.831-.0535-1.744.5918-2.284z" fill="#D2D5D9"/><path fill-rule="evenodd" clip-rule="evenodd" d="M149.223 100.277c-.177-.177-.417-.277-.667-.277h-6.612c-.521 0-.944.423-.944.944v6.612c0 .25.1.49.277.667l8.5 8.5c.368.369.966.369 1.335 0l6.611-6.611c.369-.369.369-.967 0-1.335l-8.5-8.5zm-4.917 4.445c-.783 0-1.417-.634-1.417-1.416 0-.783.634-1.417 1.417-1.417.782 0 1.416.634 1.416 1.417 0 .782-.634 1.416-1.416 1.416z" fill="#D2D5D9"/><path d="M99 106.5c0-1.381 1.021-2.5 2.28-2.5h16.44c1.259 0 2.28 1.119 2.28 2.5s-1.021 2.5-2.28 2.5h-16.44c-1.259 0-2.28-1.119-2.28-2.5zM99 115.5c0-1.381 1.04-2.5 2.323-2.5h25.354c1.283 0 2.323 1.119 2.323 2.5s-1.04 2.5-2.323 2.5h-25.354c-1.283 0-2.323-1.119-2.323-2.5z" fill="#D2D5D9"/><defs><filter id="filter0_d" x="45" y="35" width="135" height="167" filterUnits="userSpaceOnUse" color-interpolation-filters="sRGB"><feFlood flood-opacity="0" result="BackgroundImageFix"/><feColorMatrix in="SourceAlpha" values="0 0 0 0 0 0 0 0 0 0 0 0 0 0 0 0 0 0 127 0"/><feOffset dy="2"/><feGaussianBlur stdDeviation="5"/><feColorMatrix values="0 0 0 0 0 0 0 0 0 0 0 0 0 0 0 0 0 0 0.3 0"/><feBlend in2="BackgroundImageFix" result="effect1_dropShadow"/><feBlend in="SourceGraphic" in2="effect1_dropShadow" result="shape"/></filter></defs></svg>