<svg width="226" height="226" fill="none" xmlns="http://www.w3.org/2000/svg"><path d="M188 114c0 40.885-33.115 74-74 74s-74-33.115-74-74 33.115-74 74-74 74 33.115 74 74z" fill="#F0F1F2"/><g filter="url(#prefix__filter0_d)"><path d="M59 52a3 3 0 013-3h38a3 3 0 013 3v38a3 3 0 01-3 3H62a3 3 0 01-3-3V52z" fill="#fff"/></g><g filter="url(#prefix__filter1_d)"><path d="M188 61c0-2.21-1.765-4-3.941-4h-59.118c-2.176 0-3.941 1.79-3.941 4v60c0 2.209 1.765 4 3.941 4h59.118c2.176 0 3.941-1.791 3.941-4V61z" fill="#fff"/></g><path d="M170.159 87.989h-14.944l-3.32 18.989h21.585l-3.321-18.989z" fill="#7FBEC6"/><path d="M155.214 87.99h14.943l9.963-10.358h-34.869l9.963 10.357z" fill="#5BA7B1"/><path d="M171.818 69h-18.265l-8.302 8.631h34.869L171.818 69z" fill="#7FBEC6"/><path d="M155.214 87.989h-21.585v5.179h20.672l.913-5.179z" fill="#5BA7B1"/><path d="M155.214 87.989l-.913 5.179h10.876v-5.179h-9.963z" fill="#3C8B96"/><path d="M151.828 106.978h8.37c3.403-2.848 4.981-7.164 4.981-12.084v-1.726h-11.085l-2.266 13.81z" fill="#5BA7B1"/><path d="M133.629 93.168v1.726c0 4.92 1.577 9.236 4.981 12.084h13.284l2.407-13.81h-20.672z" fill="#7FBEC6"/><path d="M74 84V70.538c0-1.723.7-3.338 1.885-4.576l.538-.539C77.608 64.24 78 62.723 78 61v-5h6v5c0 1.723.392 3.185 1.577 4.423l.538.538A6.391 6.391 0 0188 70.54V84H74z" fill="#108060"/><path d="M88 76H74v9h14v-9z" fill="#00735C"/><g filter="url(#prefix__filter2_d)"><path d="M45 111.967c0-2.191 1.797-3.967 4.013-3.967h79.974c2.216 0 4.013 1.776 4.013 3.967v79.066c0 2.191-1.797 3.967-4.013 3.967H49.013c-2.216 0-4.013-1.776-4.013-3.967v-79.066z" fill="#fff"/></g><path d="M117.923 138.857L111.526 181H92.334l8.967-42.143h16.622z" fill="#DE6A5A"/><path d="M101.301 138.857L92.334 181H92l-6.102-42.143h15.403z" fill="#CD5747"/><path d="M92.332 181H68.876l-8.093-42.143h25.152L92.332 181z" fill="#DE6A5A"/><path d="M117.923 138.857H85.936L92.334 122h19.192l6.397 16.857z" fill="#EC856F"/><defs><filter id="prefix__filter0_d" x="54" y="45" width="54" height="54" filterUnits="userSpaceOnUse" color-interpolation-filters="sRGB"><feFlood flood-opacity="0" result="BackgroundImageFix"/><feColorMatrix in="SourceAlpha" values="0 0 0 0 0 0 0 0 0 0 0 0 0 0 0 0 0 0 127 0"/><feOffset dy="1"/><feGaussianBlur stdDeviation="2.5"/><feColorMatrix values="0 0 0 0 0 0 0 0 0 0 0 0 0 0 0 0 0 0 0.3 0"/><feBlend in2="BackgroundImageFix" result="effect1_dropShadow"/><feBlend in="SourceGraphic" in2="effect1_dropShadow" result="shape"/></filter><filter id="prefix__filter1_d" x="116" y="53" width="77" height="78" filterUnits="userSpaceOnUse" color-interpolation-filters="sRGB"><feFlood flood-opacity="0" result="BackgroundImageFix"/><feColorMatrix in="SourceAlpha" values="0 0 0 0 0 0 0 0 0 0 0 0 0 0 0 0 0 0 127 0"/><feOffset dy="1"/><feGaussianBlur stdDeviation="2.5"/><feColorMatrix values="0 0 0 0 0 0 0 0 0 0 0 0 0 0 0 0 0 0 0.3 0"/><feBlend in2="BackgroundImageFix" result="effect1_dropShadow"/><feBlend in="SourceGraphic" in2="effect1_dropShadow" result="shape"/></filter><filter id="prefix__filter2_d" x="35" y="100" width="108" height="107" filterUnits="userSpaceOnUse" color-interpolation-filters="sRGB"><feFlood flood-opacity="0" result="BackgroundImageFix"/><feColorMatrix in="SourceAlpha" values="0 0 0 0 0 0 0 0 0 0 0 0 0 0 0 0 0 0 127 0"/><feOffset dy="2"/><feGaussianBlur stdDeviation="5"/><feColorMatrix values="0 0 0 0 0 0 0 0 0 0 0 0 0 0 0 0 0 0 0.3 0"/><feBlend in2="BackgroundImageFix" result="effect1_dropShadow"/><feBlend in="SourceGraphic" in2="effect1_dropShadow" result="shape"/></filter></defs></svg>
