<svg width="226" height="226" viewBox="0 0 226 226" fill="none" xmlns="http://www.w3.org/2000/svg">
<path d="M187 124.002C187 134.992 184.6 145.432 180.29 154.812C168.61 180.302 142.87 198.002 113 198.002C83.13 198.002 57.39 180.302 45.71 154.812C41.4 145.432 39 134.992 39 124.002C39 83.132 72.13 50.002 113 50.002C153.87 50.002 187 83.132 187 124.002Z" fill="#F0F1F2"/>
<mask id="mask0_84481_1268" style="mask-type:alpha" maskUnits="userSpaceOnUse" x="39" y="27" width="148" height="172">
<path d="M187 67.5C187 78.49 184.6 145.43 180.29 154.81C168.61 180.3 142.87 198 113 198C83.13 198 57.39 180.3 45.71 154.81C41.4 145.43 39 78.49 39 67.5C39 26.63 72.13 27.0001 113 27.0001C153.87 27.0001 187 26.63 187 67.5Z" fill="#F0F1F2"/>
</mask>
<g mask="url(#mask0_84481_1268)">
<g filter="url(#filter0_d_84481_1268)">
<path d="M56.8921 46.623C56.8921 45.726 57.6181 45 58.5151 45H167.269C168.166 45 168.892 45.726 168.892 46.623V196.826C168.892 197.723 168.166 198.449 167.269 198.449H58.5151C57.6181 198.449 56.8921 197.723 56.8921 196.826V46.623Z" fill="#5BA7B1"/>
<path d="M168.892 102.275H56.8921V132.71H168.892V102.275Z" fill="#7FBEC6"/>
<path d="M56.8921 132.71H168.892V196.826C168.892 197.723 168.166 198.449 167.269 198.449H58.5151C57.6181 198.449 56.8921 197.723 56.8921 196.826V132.71Z" fill="white"/>
<path d="M82.9859 102.129H79.0009L76.9719 90.0117H80.9489L81.1279 91.0827L82.9859 102.129Z" fill="white"/>
<path d="M145.741 132.851H142.2L139.795 118.513H143.335L145.741 132.851Z" fill="#6D493C"/>
<path d="M111.486 86.8274H80.4169L75.3669 56.7354H104.19C105.487 56.7354 106.594 57.6724 106.809 58.9514L111.486 86.8274Z" fill="white"/>
<path d="M80.417 86.8274H76.437L71.907 59.8294C71.635 58.2104 72.883 56.7344 74.525 56.7344H75.367L80.417 86.8274Z" fill="white"/>
<path d="M151.681 90.0302L140.142 99.4852L140.584 102.126H132.229L147.011 90.0122H125.22V86.8262H151.681V90.0302Z" fill="#6D493C"/>
<path d="M113.705 121.152L99.4271 132.851H94.7361L112.232 118.513H113.26L113.705 121.152Z" fill="#6D493C"/>
<path d="M113.049 96.1417L109.937 98.6927L105.746 102.127H82.9839L80.9519 90.0127H112.02L113.049 96.1417Z" fill="white"/>
<path d="M125.22 90.0132L113.617 99.5222L119.209 132.85H115.669L110.514 102.126L110.505 102.071L110.438 102.126L72.9449 132.85H68.2539L120.529 90.0122H71.6729V86.8262H125.22V90.0132Z" fill="#AF5947"/>
<path d="M156.679 104.784V118.514H127.493V102.128H154.024C155.49 102.128 156.679 103.317 156.679 104.784Z" fill="#D2D5D9"/>
<path d="M127.493 102.128V118.513H116.802L114.053 102.128H127.493Z" fill="#D2D5D9"/>
<path d="M113.261 118.514H90.4419L110.503 102.073L113.261 118.514Z" fill="#D2D5D9"/>
<path d="M105.743 102.13L85.729 118.516H81.752L79.001 102.13H105.743Z" fill="#D2D5D9"/>
<path d="M115.892 144H69.8921C68.7871 144 67.8921 144.895 67.8921 146C67.8921 147.105 68.7871 148 69.8921 148H115.892C116.997 148 117.892 147.105 117.892 146C117.892 144.895 116.996 144 115.892 144Z" fill="#D2D5D9"/>
<path d="M102.892 159H72.8921C70.1311 159 67.8921 161.239 67.8921 164C67.8921 166.761 70.1311 169 72.8921 169H102.892C105.653 169 107.892 166.761 107.892 164C107.892 161.239 105.653 159 102.892 159Z" fill="#00735C"/>
</g>
</g>
<defs>
<filter id="filter0_d_84481_1268" x="46.8921" y="37" width="132" height="173.449" filterUnits="userSpaceOnUse" color-interpolation-filters="sRGB">
<feFlood flood-opacity="0" result="BackgroundImageFix"/>
<feColorMatrix in="SourceAlpha" type="matrix" values="0 0 0 0 0 0 0 0 0 0 0 0 0 0 0 0 0 0 127 0" result="hardAlpha"/>
<feOffset dy="2"/>
<feGaussianBlur stdDeviation="5"/>
<feColorMatrix type="matrix" values="0 0 0 0 0 0 0 0 0 0 0 0 0 0 0 0 0 0 0.3 0"/>
<feBlend mode="normal" in2="BackgroundImageFix" result="effect1_dropShadow_84481_1268"/>
<feBlend mode="normal" in="SourceGraphic" in2="effect1_dropShadow_84481_1268" result="shape"/>
</filter>
</defs>
</svg>
