<svg width="226" height="226" fill="none" xmlns="http://www.w3.org/2000/svg"><path d="M187 113c0 40.9-33.1 74-74 74s-74-33.1-74-74 33.1-74 74-74 74 33.1 74 74z" fill="#F0F1F2"/><clipPath id="prefix__a" clipPathUnits="userSpaceOnUse"><path d="M187 113c0 40.9-33.1 74-74 74H41.872V39H113c40.9 0 74 33.1 74 74z" fill="#fff"/></clipPath><g filter="url(#prefix__prefix__prefix__filter0_d)" clip-path="url(#prefix__a)"><path d="M184.012 57H56.359C54.512 57 53 58.8 53 61v104c0 2.2 1.512 4 3.36 4h127.652c1.848 0 3.36-1.8 3.36-4V61c0-2.2-1.512-4-3.36-4z" fill="#fff"/></g><path d="M56.372 57c-2.2 0-4 1.8-4 4v104c0 2.2 1.8 4 4 4h76V57h-76z" fill="#5BA7B1"/><path d="M52.372 120.488V61c0-2.2 1.8-4 4-4h76v66.799c-9.833 9.879-23.444 15.994-38.483 15.994-16.654 0-31.558-7.5-41.517-19.305z" fill="#7FBEC6"/><path fill-rule="evenodd" clip-rule="evenodd" d="M72.057 143.589l13.717 5.519 12.365 7.264 1.682-27.764s15.141 3.875 17.467-.255c1.932-3.427-.574-5.608.666-6.188.734-.344 1.963-2.732.44-3.922 1.115-.498.936-2.285.738-2.836-.292-.807-1.05-.52-.522-1.87.403-1.028 2.285-1.032 2.218-3.086-.065-2.054-5.786-7.349-6.653-9.232-.55-1.191-.897-6.751-1.993-9.067-1.909-4.034-5.19-6.916-8.586-8.579a16.977 16.977 0 00-5.457-1.622c-1.918-.221-4.007-.382-5.93-.27-4.681.277-9.129 2.463-12.743 5.407-3.074 2.509-5.736 5.68-7.021 9.462-1.598 4.7-.885 10.085 1.633 14.348 1.726 2.922 10.825 6.171 11.689 9.465l-13.71 23.226z" fill="#975D48"/><path fill-rule="evenodd" clip-rule="evenodd" d="M58.372 169h52s-13.5-39-34.5-32.5l-17.5 32.5z" fill="#181C21"/><path fill-rule="evenodd" clip-rule="evenodd" d="M63.372 130.5c6.5 4 13.525 8.878 32.786 8.878v-16.314c0-3.763-3.71-9.226-4.856-11.549-.662-1.346-1.158-2.974-.46-4.299.353-.666.961-1.158 1.57-1.609 3.4-2.515 7.307-4.423 10.201-7.508 2.872-3.064 4.535-7.213 4.627-11.395 5.151 3.124 6.252 10.666 6.264 10.701 1.31-1.154 2.848-2.444 2.848-5.083 0-9.852-23.343-24.19-42.274-8.684C55.35 98.976 63.372 130.5 63.372 130.5z" fill="#F0F1F2"/><path d="M182.372 109h-34c-1.1 0-2-.9-2-2s.9-2 2-2h34c1.1 0 2 .9 2 2s-.9 2-2 2zm0-10h-34c-1.1 0-2-.9-2-2s.9-2 2-2h34c1.1 0 2 .9 2 2s-.9 2-2 2z" fill="#E8E9EB"/><path d="M171.372 147h-20c-2.8 0-5-2.2-5-5s2.2-5 5-5h20c2.8 0 5 2.2 5 5s-2.2 5-5 5z" fill="#108060"/><path d="M178.757 79a73.71 73.71 0 012.772 6h-32.157c-1.7 0-3-1.3-3-3s1.3-3 3-3h29.385z" fill="#E8E9EB"/><defs><filter id="prefix__prefix__prefix__filter0_d" x="48" y="53" width="144.372" height="122" filterUnits="userSpaceOnUse" color-interpolation-filters="sRGB"><feFlood flood-opacity="0" result="BackgroundImageFix"/><feColorMatrix in="SourceAlpha" values="0 0 0 0 0 0 0 0 0 0 0 0 0 0 0 0 0 0 127 0"/><feOffset dy="1"/><feGaussianBlur stdDeviation="2.5"/><feColorMatrix values="0 0 0 0 0 0 0 0 0 0 0 0 0 0 0 0 0 0 0.3 0"/><feBlend in2="BackgroundImageFix" result="effect1_dropShadow"/><feBlend in="SourceGraphic" in2="effect1_dropShadow" result="shape"/></filter></defs></svg>
