<svg width="148" height="148" viewBox="0 0 148 148" fill="none" xmlns="http://www.w3.org/2000/svg">
<path d="M148 74C148 114.9 114.9 148 74 148C33.1 148 0 114.9 0 74C0 33.1 33.1 0 74 0C114.9 0 148 33.1 148 74Z" fill="#F0F1F2"/>
<mask id="mask0_6427_254804" style="mask-type:alpha" maskUnits="userSpaceOnUse" x="2" y="0" width="146" height="148">
<path d="M147.999 74C147.999 114.9 114.9 148 73.9995 148H2.87109V0L73.9995 0C114.9 0 147.999 33.1 147.999 74Z" fill="white"/>
</mask>
<g mask="url(#mask0_6427_254804)">
<g filter="url(#filter0_d_6427_254804)">
<path d="M145.012 18H17.3593C15.5117 18 14 19.8 14 22V126C14 128.2 15.5117 130 17.3593 130H145.012C146.86 130 148.372 128.2 148.372 126V22C148.372 19.8 146.86 18 145.012 18Z" fill="white"/>
</g>
</g>
<path fill-rule="evenodd" clip-rule="evenodd" d="M33.0569 104.589L46.7739 110.108L59.1388 117.372L60.821 89.6082C60.821 89.6082 75.9619 93.483 78.2885 89.3535C80.22 85.9258 77.7143 83.7453 78.954 83.1645C79.6879 82.8207 80.917 80.4335 79.3947 79.2434C80.5097 78.7446 80.3306 76.9577 80.1322 76.4072C79.8407 75.6002 79.0821 75.887 79.6107 74.5367C80.0128 73.5087 81.8951 73.5052 81.8283 71.4511C81.7634 69.397 76.0427 64.1024 75.1753 62.2193C74.6257 61.0275 74.278 55.4674 73.1824 53.1515C71.2737 49.1181 67.992 46.2357 64.5961 44.5735C62.8806 43.7344 61.0317 43.1732 59.1388 42.9506C57.2214 42.7297 55.1319 42.5693 53.2092 42.6816C48.528 42.9577 44.0804 45.1436 40.4668 48.0884C37.3922 50.5968 34.7303 53.7679 33.445 57.55C31.8471 62.2496 32.56 67.6351 35.078 71.8983C36.804 74.8199 45.903 78.0694 46.7669 81.3634L33.0569 104.589Z" fill="#975D48"/>
<path fill-rule="evenodd" clip-rule="evenodd" d="M19.3711 130C19.3711 130 51.7459 130 71.3711 130C71.3711 130 57.8711 91 36.8711 97.5L19.3711 130Z" fill="#181C21"/>
<path fill-rule="evenodd" clip-rule="evenodd" d="M24.3716 91.5016C30.8716 95.5016 37.8972 100.38 57.1578 100.38C57.1578 100.38 57.1578 86.819 57.1578 84.066C57.1578 80.303 53.4488 74.8396 52.3016 72.5161C51.6398 71.1707 51.1438 69.543 51.8414 68.2171C52.1946 67.5515 52.803 67.0598 53.4113 66.6089C56.8117 64.0938 60.7188 62.1857 63.6126 59.1007C66.4849 56.0371 68.1476 51.8872 68.2404 47.7053C73.391 50.8293 74.4917 58.3712 74.5042 58.4067C75.8137 57.253 77.3516 55.9626 77.3516 53.3231C77.3516 43.4719 54.009 29.1336 35.0784 44.6399C16.3494 59.9776 24.3716 91.5016 24.3716 91.5016Z" fill="#F0F1F2"/>
<path d="M17 18C14.8 18 13 19.8 13 22V126C13 128.2 14.8 130 17 130H93V18H17Z" fill="#208B86"/>
<path d="M13 81.4876V22C13 19.8 14.8 18 17 18H93V84.7993C83.1677 94.678 69.5568 100.793 54.5178 100.793C37.8629 100.793 22.9595 93.2934 13 81.4876Z" fill="#5AB2AC"/>
<path d="M33 114H19V108C19 104.7 21.7 102 25 102H33V114Z" fill="#CD5747"/>
<path d="M93 76H29V114H93V76Z" fill="#EC856F"/>
<path d="M93 83H49V114H93V83Z" fill="#DE6A5A"/>
<path d="M93 72H29V76H93V72Z" fill="#CD5747"/>
<path d="M93 46H25V60H93V46Z" fill="#E8E9EB"/>
<path d="M25 66V72H26.1607H88.8393H93V66H25Z" fill="#E8E9EB"/>
<path d="M93 62H25V66H93V62Z" fill="#9FA5AB"/>
<path d="M93 60H25V62H93V60Z" fill="#9FA5AB"/>
<path d="M93 36H19V40H93V36Z" fill="#E8E9EB"/>
<path d="M22 43H93V40H19L22 43Z" fill="#9FA5AB"/>
<path d="M25 46H93V43H22L25 46Z" fill="#9FA5AB"/>
<path d="M50.3408 51H93V52.3559V53.6441V55H50.3408C49.6034 55 49 54.3898 49 53.6441V52.3559C49 51.6102 49.6034 51 50.3408 51Z" fill="#828A91"/>
<path d="M63 87H55V107H63V87Z" fill="#F0F1F2"/>
<path d="M79 87H67V114H79V87Z" fill="#F0F1F2"/>
<path d="M93 87H83V114H93V87Z" fill="#F0F1F2"/>
<mask id="mask1_6427_254804" style="mask-type:alpha" maskUnits="userSpaceOnUse" x="13" y="18" width="80" height="83">
<path d="M13 81.4876V22C13 19.8 14.8 18 17 18H93V84.7993C83.1677 94.678 69.5568 100.793 54.5178 100.793C37.8629 100.793 22.9595 93.2934 13 81.4876Z" fill="#B6BABF"/>
</mask>
<g mask="url(#mask1_6427_254804)">
<path d="M63 87H55V107H63V87Z" fill="#D2D5D9"/>
<path d="M79 87H67V114H79V87Z" fill="#D2D5D9"/>
<path d="M93 87H83V114H93V87Z" fill="#D2D5D9"/>
</g>
<path d="M143.371 70H109.371C108.271 70 107.371 69.1 107.371 68C107.371 66.9 108.271 66 109.371 66H143.371C144.471 66 145.371 66.9 145.371 68C145.371 69.1 144.471 70 143.371 70Z" fill="#E8E9EB"/>
<path d="M143.371 60H109.371C108.271 60 107.371 59.1 107.371 58C107.371 56.9 108.271 56 109.371 56H143.371C144.471 56 145.371 56.9 145.371 58C145.371 59.1 144.471 60 143.371 60Z" fill="#E8E9EB"/>
<path d="M132.371 106H112.371C109.571 106 107.371 103.8 107.371 101C107.371 98.2 109.571 96 112.371 96H132.371C135.171 96 137.371 98.2 137.371 101C137.371 103.8 135.171 106 132.371 106Z" fill="#108060"/>
<path d="M139.756 40C140.766 41.9508 141.692 43.9524 142.528 46H110.371C108.671 46 107.371 44.7 107.371 43C107.371 41.3 108.671 40 110.371 40H139.756Z" fill="#E8E9EB"/>
<defs>
<filter id="filter0_d_6427_254804" x="9" y="14" width="144.371" height="122" filterUnits="userSpaceOnUse" color-interpolation-filters="sRGB">
<feFlood flood-opacity="0" result="BackgroundImageFix"/>
<feColorMatrix in="SourceAlpha" type="matrix" values="0 0 0 0 0 0 0 0 0 0 0 0 0 0 0 0 0 0 127 0" result="hardAlpha"/>
<feOffset dy="1"/>
<feGaussianBlur stdDeviation="2.5"/>
<feColorMatrix type="matrix" values="0 0 0 0 0 0 0 0 0 0 0 0 0 0 0 0 0 0 0.3 0"/>
<feBlend mode="normal" in2="BackgroundImageFix" result="effect1_dropShadow_6427_254804"/>
<feBlend mode="normal" in="SourceGraphic" in2="effect1_dropShadow_6427_254804" result="shape"/>
</filter>
</defs>
</svg>
