<svg xmlns="http://www.w3.org/2000/svg" viewBox="0 0 102 100"><path fill="#E6E7F1" d="M24.467 30.859c-4.58-26.454 35.159-27.472 40.75-13.708 6.315 15.545 7.862 18.965 20.061 19.571 12.326.612 11.601 29.897-7.156 25.812-21.286-4.636-22.914 22.204-35.787 23.855-15.249 1.955-26.173-2.327-31.684-17.11-7.195-19.302 17.774-15.558 13.816-38.42z"/><path fill="#E6E7F1" d="M25.458 30.586c-1.42-8.748 2.69-16.195 11.031-19.353 6.834-2.587 15.469-2.624 22.063.733 8.058 4.102 7.83 14.626 13.485 20.994 2.48 2.794 5.881 3.984 9.507 4.462 3.872.51 7.058.288 9.226 4.048 3.367 5.841 2.097 15.738-4.175 19.199-4.292 2.368-8.654.299-13.176.301-4.107.001-7.938 1.426-11.14 3.967-6.239 4.952-8.957 12.944-14.979 18.022-3.686 3.109-8.933 3.032-13.521 2.796-5.431-.28-10.794-1.903-14.909-5.568-4.181-3.724-7.326-9.437-8.292-14.947-.674-3.847.526-7.135 3.15-9.948 5.066-5.431 11.067-9.187 12.041-17.204.304-2.51.093-5.015-.311-7.502-.211-1.3-2.193-.749-1.983.546.843 5.193.292 10.341-2.984 14.609-2.358 3.073-5.591 5.285-8.218 8.1-2.436 2.611-4.022 5.712-3.957 9.346.094 5.299 2.835 10.924 5.992 15.06 3.227 4.227 7.688 7.204 12.835 8.571 5.16 1.37 11.782 1.772 16.944.249 7.727-2.279 11.29-11.763 16.183-17.337 3.17-3.61 7.144-6.378 12.078-6.676 4.833-.293 9.339 1.923 14.069-.033 7.092-2.932 9.339-12.02 7.596-18.887-.804-3.169-2.621-6.325-5.712-7.72-3.89-1.755-8.454-.49-12.298-2.784-8.155-4.866-6.785-17.063-14.526-22.327-12.274-8.345-36.08-3.824-38.232 12.837-.302 2.342-.148 4.669.229 6.993.212 1.299 2.194.748 1.984-.547z"/><g fill="#FBB563"><path d="M45.046 24.295h-31.39V5.464c0-2.451 1.991-4.438 4.447-4.438s4.447 1.987 4.447 4.438v5.896c0 1.667 1.354 3.019 3.025 3.019 1.671 0 3.025-1.352 3.025-3.019V8.844c0-1.843 1.497-3.337 3.344-3.337 1.847 0 3.344 1.494 3.344 3.337v8.598c0 1.262 1.025 2.285 2.289 2.285h2.891c2.528-.001 4.578 2.045 4.578 4.568z"/><path d="M45.046 25.321h-31.39c-.568 0-1.028-.459-1.028-1.026V5.464C12.627 2.451 15.083 0 18.103 0s5.475 2.451 5.475 5.464v5.895c0 1.099.896 1.993 1.997 1.993s1.997-.894 1.997-1.993V8.844c0-2.406 1.961-4.363 4.372-4.363s4.372 1.957 4.372 4.363v8.598c0 .694.565 1.259 1.261 1.259h2.891c3.091 0 5.607 2.51 5.607 5.595-.001.566-.461 1.025-1.029 1.025zm-30.362-2.052h29.183c-.442-1.455-1.798-2.517-3.399-2.517h-2.891c-1.829 0-3.317-1.485-3.317-3.311V8.844c0-1.274-1.039-2.311-2.316-2.311s-2.316 1.037-2.316 2.311v2.516c0 2.231-1.818 4.045-4.053 4.045s-4.053-1.815-4.053-4.045V5.464c0-1.881-1.534-3.412-3.419-3.412s-3.419 1.531-3.419 3.412v17.805z"/></g><path fill="#E6E7F1" d="M51.163 47.429h46.999v51.032H51.163z"/><path fill="#B9BAD5" d="M74.793 92.312h23.586V57.346H74.793c-1.172 0-2.122.95-2.122 2.122V90.19c0 1.172.95 2.122 2.122 2.122z"/><ellipse cx="90.599" cy="81.938" fill="#FBB563" rx="4.145" ry="4.137"/><path fill="#5F5371" d="M90.599 87.101c-2.853 0-5.173-2.316-5.173-5.162s2.32-5.163 5.173-5.163 5.173 2.317 5.173 5.163-2.32 5.162-5.173 5.162zm0-8.274c-1.719 0-3.117 1.396-3.117 3.111 0 1.715 1.398 3.11 3.117 3.11s3.117-1.395 3.117-3.11c0-1.715-1.398-3.111-3.117-3.111zM79.75 71.673h18.411v2.052H79.75zm0-4.3h18.411v2.052H79.75zm0-4.3h18.411v2.052H79.75z"/><g fill="#FBB563"><path d="M98.162 50.015c0-1.655-1.37-2.997-3.059-2.997H54.222c-1.69 0-3.059 1.342-3.059 2.997 0 1.655 1.37 2.997 3.059 2.997h.23c1.69 0 3.059 1.342 3.059 2.997v8.698c0 3.215 2.661 5.822 5.943 5.822 3.282 0 5.943-2.607 5.943-5.822v-7.734c0-2.187 1.81-3.96 4.043-3.96s4.043 1.773 4.043 3.96v3.3c0 2.418 2.001 4.378 4.469 4.378 2.468 0 4.469-1.96 4.469-4.378v-4.135c0-1.726 1.428-3.125 3.19-3.125H95.1c1.692-.001 3.062-1.343 3.062-2.998z"/><path d="M63.455 71.555c-3.844 0-6.971-3.072-6.971-6.848v-8.699c0-1.087-.912-1.971-2.031-1.971h-.231c-2.254 0-4.087-1.805-4.087-4.023s1.833-4.023 4.087-4.023h40.88c2.254 0 4.087 1.805 4.087 4.023s-1.833 4.023-4.087 4.023h-5.489c-1.192 0-2.162.942-2.162 2.099v4.135c0 2.98-2.466 5.404-5.497 5.404-3.031 0-5.497-2.424-5.497-5.404v-3.3c0-1.618-1.352-2.935-3.015-2.935s-3.015 1.317-3.015 2.935v7.735c0 3.777-3.128 6.849-6.972 6.849zm-9.233-23.511c-1.12 0-2.031.884-2.031 1.971s.912 1.97 2.031 1.97h.231c2.254 0 4.087 1.805 4.087 4.023v8.699c0 2.644 2.205 4.796 4.915 4.796s4.915-2.151 4.915-4.796v-7.735c0-2.75 2.275-4.987 5.071-4.987s5.071 2.238 5.071 4.987v3.3c0 1.848 1.543 3.352 3.441 3.352s3.441-1.504 3.441-3.352v-4.135c0-2.289 1.893-4.151 4.218-4.151h5.489c1.12 0 2.031-.884 2.031-1.97s-.912-1.971-2.031-1.971H54.222z"/></g><path fill="#5F5371" d="M98.162 99.487H51.163c-.568 0-1.028-.459-1.028-1.026V47.429c0-.567.46-1.026 1.028-1.026h46.999c.568 0 1.028.459 1.028 1.026v51.032c0 .567-.46 1.026-1.028 1.026zm-45.971-2.052h44.942v-48.98H52.191v48.98z"/><path fill="#5F5371" d="M100.458 100H48.867c-.852 0-1.542-.689-1.542-1.539s.69-1.539 1.542-1.539h51.591c.851 0 1.542.689 1.542 1.539s-.691 1.539-1.542 1.539zm0-51.032H48.867c-.852 0-1.542-.689-1.542-1.539s.69-1.539 1.542-1.539h51.591c.851 0 1.542.689 1.542 1.539s-.691 1.539-1.542 1.539zM63.697 59.8c-1.261 0-2.287-1.024-2.287-2.283s1.026-2.283 2.287-2.283 2.287 1.024 2.287 2.283-1.025 2.283-2.287 2.283zm0-2.513c-.128 0-.231.103-.231.23 0 .255.462.255.462 0 0-.127-.103-.23-.231-.23z"/><path fill="#5F5371" d="M34.118 58.691c-.568 0-1.028-.459-1.028-1.026v-5.78L6.475 45.26C2.663 44.311 0 40.91 0 36.989v-5.808c0-.273.109-.534.302-.727.193-.191.454-.299.726-.299h.004l65.225.212c.568.002 1.027.463 1.025 1.03-.002.565-.462 1.023-1.028 1.023h-.003l-64.195-.21v4.779c0 2.977 2.022 5.559 4.916 6.28l27.395 6.82c.458.114.779.525.779.996v6.581c0 .566-.46 1.025-1.028 1.025z"/><path fill="#857B98" d="M29.351 56.651h9.534v31.43h-9.534z"/><path fill="#5F5371" d="M38.885 89.107h-9.534c-.568 0-1.028-.459-1.028-1.026v-31.43c0-.567.46-1.026 1.028-1.026h9.534c.568 0 1.028.459 1.028 1.026v31.43c0 .567-.46 1.026-1.028 1.026zm-8.506-2.052h7.478V57.677h-7.478v29.378z"/><path fill="#857B98" d="M8.322 24.819h53.629v12.724H8.322z"/><path fill="#5F5371" d="M61.951 38.569H8.322c-.568 0-1.028-.459-1.028-1.026V24.819c0-.567.46-1.026 1.028-1.026h53.629c.568 0 1.028.459 1.028 1.026v12.724c.001.566-.459 1.026-1.028 1.026zM9.35 36.516h51.573V25.845H9.35v10.671z"/><path fill="#857B98" d="M63.21 27.412v7.962"/><path fill="#5F5371" d="M63.21 36.401c-.568 0-1.028-.459-1.028-1.026v-7.963c0-.567.46-1.026 1.028-1.026s1.028.459 1.028 1.026v7.963c0 .566-.46 1.026-1.028 1.026z"/><path fill="#857B98" d="M7.291 27.412v7.962"/><path fill="#5F5371" d="M7.291 36.401c-.568 0-1.028-.459-1.028-1.026v-7.963c0-.567.46-1.026 1.028-1.026s1.028.459 1.028 1.026v7.963c.001.566-.46 1.026-1.028 1.026z"/><g fill="#FBB563"><path d="M8.397 24.698h53.554v12.845H8.397z"/><path d="M61.951 38.056H8.397c-.284 0-.514-.229-.514-.513V24.698c0-.284.23-.513.514-.513h53.555c.284 0 .514.229.514.513v12.845c0 .283-.23.513-.515.513zm-53.04-1.027h52.526V25.211H8.911v11.818z"/></g><path fill="#5F5371" d="M61.951 38.569H8.322c-.568 0-1.028-.459-1.028-1.026V24.819c0-.567.46-1.026 1.028-1.026h53.629c.568 0 1.028.459 1.028 1.026v12.724c.001.566-.459 1.026-1.028 1.026zM9.35 36.516h51.573V25.845H9.35v10.671z"/><path fill="#857B98" d="M54.376 55.929v37.8"/><path fill="#FFF" d="M54.376 94.754c-.568 0-1.028-.459-1.028-1.026v-37.8c0-.567.46-1.026 1.028-1.026.568 0 1.028.459 1.028 1.026v37.8c0 .567-.46 1.026-1.028 1.026z"/><path fill="#857B98" d="M32.438 59.221v26.096"/><path fill="#B9BAD5" d="M32.438 86.343c-.568 0-1.028-.459-1.028-1.026V59.221c0-.567.46-1.026 1.028-1.026.568 0 1.028.459 1.028 1.026v26.096c0 .567-.46 1.026-1.028 1.026z"/><path fill="#5F5371" d="M47.135 74.604c-.263 0-.526-.1-.727-.301-.402-.401-.402-1.05 0-1.451l16.563-16.529c.402-.401 1.052-.401 1.454 0 .402.401.402 1.05 0 1.451L47.862 74.303c-.201.2-.464.301-.727.301z"/><path fill="#FDEED1" d="M57.971 29.502H12.434c-.568 0-1.028-.459-1.028-1.026s.46-1.026 1.028-1.026h45.537c.568 0 1.028.459 1.028 1.026.001.566-.459 1.026-1.028 1.026z"/><path fill="#E6E7F1" d="M74.362 14.686c4.208-4.713 14.006 8.616 10.433 11.872-5.547 5.054-12.679-9.357-10.433-11.872z"/><path fill="#E6E7F1" d="M75.089 15.411c3.324-3.374 11.533 7.094 9.073 10.319-2.206 2.892-5.784-1.463-6.87-3.18-.933-1.475-3.383-5.563-2.042-7.347.794-1.057-.99-2.081-1.776-1.036-2.166 2.881 1.239 8.486 2.967 10.745 2.1 2.746 6.464 5.653 9.349 2.071 2.418-3.002-.76-7.907-2.711-10.254-2.149-2.584-6.351-5.91-9.444-2.77-.929.944.524 2.396 1.454 1.452z"/></svg>