<svg width="226" height="226" fill="none" xmlns="http://www.w3.org/2000/svg"><path d="M113.5 187c40.869 0 74-33.131 74-74 0-40.87-33.131-74-74-74-40.87 0-74 33.13-74 74 0 40.869 33.13 74 74 74Z" fill="#F0F1F2"/><path d="m98.5 127 26.8-95.6c.8-2.8 2.7-5.1 5.2-6.4l-8 83.6-18 20.4-6-2Z" fill="#828A91"/><path d="M108.3 131.7c.5-1.6-.1-3.3-1.5-4.4l-5.3-3.5c-.7-.5-1.6-.8-2.4-.8-1.6 0-3.1 1-3.7 2.4L85.1 149c-1.7 3.9-4.6 7-8.3 9-1.3.7-2.8 1.2-4.2 1.6-8.6 2.3-14.8 10.6-13.9 20.1.8 8.7 7.7 15.9 16.4 17 8.2 1 15.6-3.2 19.1-9.7l4.1-6.4c1.4-2.2 1.3-4.9-.1-7.1-1.1-1.6-1.4-3.5-.8-5.4l10.9-36.4ZM77.5 191c-7.2 0-13-5.8-13-13s5.8-13 13-13 13 5.8 13 13-5.8 13-13 13Z" fill="#399C97"/><path d="M142.5 39h-110v62h110V39Z" fill="#E9AF58"/><path d="M134.5 47h-94v46h94V47Z" fill="#D9942D"/><path d="M124 56h-3v4h3v-4Zm0 8h-3v4h3v-4Zm0 8h-3v4h3v-4Zm0 8h-3v4h3v-4Zm0-33h-3v5h3v-5Zm0 41h-3v5h3v-5ZM76.9 61.4c.8-.8.8-2 0-2.8-.8-.8-2-.8-2.8 0l-20 20c-.8.8-.8 2 0 2.8.8.8 2 .8 2.8 0l20-20Zm-19.4 6.1c-3 0-5.5-2.5-5.5-5.5s2.5-5.5 5.5-5.5S63 59 63 62s-2.5 5.5-5.5 5.5Zm0-8c-1.4 0-2.5 1.1-2.5 2.5s1.1 2.5 2.5 2.5S60 63.4 60 62s-1.1-2.5-2.5-2.5Zm16 24c-3 0-5.5-2.5-5.5-5.5s2.5-5.5 5.5-5.5S79 75 79 78s-2.5 5.5-5.5 5.5Zm0-8c-1.4 0-2.5 1.1-2.5 2.5s1.1 2.5 2.5 2.5S76 79.4 76 78s-1.1-2.5-2.5-2.5Z" fill="#fff"/><path d="M124.5 127 97.7 31.4c-.8-2.8-2.7-5.1-5.2-6.4l8 83.6 18 20.4 6-2Z" fill="#D2D5D9"/><path d="m94.7 34.5 17.4 62.2c.6 2.2 2.6 3.8 4.9 3.8l-19.3-69c-.8-2.9-2.7-5.2-5.2-6.5l.6 6.1c.7 1 1.3 2.2 1.6 3.4Z" fill="#E8E9EB"/><path d="M110.5 111a3 3 0 1 0 0-6 3 3 0 0 0 0 6Z" fill="#828A91"/><path d="M150.5 160.7c-1.5-.4-2.9-.9-4.2-1.6-3.7-2-6.7-5.2-8.3-9l-10.3-23.6c-.8-1.5-2.2-2.5-3.8-2.5-.9 0-1.7.3-2.4.8l-5.3 3.5c-1.3 1-1.9 2.7-1.5 4.4l11 36.4c.5 1.8.2 3.8-.8 5.4-1.4 2.1-1.5 4.9-.1 7.1l2.6 4.1c2.1-.4 4.2-.9 6.2-1.5-.7-1.6-1.1-3.4-1.1-5.2 0-7.2 5.8-13 13-13 5 0 9.3 2.8 11.5 6.9 1.6-1.2 3.2-2.4 4.7-3.8-2.5-4.1-6.5-7.1-11.2-8.4Z" fill="#108060"/></svg>