<svg width="226" height="226" viewBox="0 0 226 226" fill="none" xmlns="http://www.w3.org/2000/svg">
<rect width="226" height="226" fill="white"/>
<path d="M112 187C152.869 187 186 153.869 186 113C186 72.1307 152.869 39 112 39C71.1307 39 38 72.1307 38 113C38 153.869 71.1307 187 112 187Z" fill="#F0F1F2"/>
<mask id="mask0_84481_1467" style="mask-type:luminance" maskUnits="userSpaceOnUse" x="27" y="39" width="160" height="148">
<path d="M187 113C187 153.9 153.929 187 113.065 187H27.5V39L113.065 39C153.929 39 187 72.1 187 113Z" fill="white"/>
</mask>
<g mask="url(#mask0_84481_1467)">
<g filter="url(#filter0_d_84481_1467)">
<path d="M39 61C39 58.7909 40.7909 57 43 57H186C188.209 57 190 58.7909 190 61V165C190 167.209 188.209 169 186 169H43C40.7909 169 39 167.209 39 165V61Z" fill="white"/>
</g>
<path d="M49 113C49 96.4315 62.4315 83 79 83H187V143H79C62.4315 143 49 129.569 49 113Z" fill="#F0F1F2"/>
</g>
<path fill-rule="evenodd" clip-rule="evenodd" d="M59 113C59 101.402 68.4024 92 80 92C91.5976 92 101 101.402 101 113C101 124.598 91.5976 134 80 134C68.4024 134 59 124.598 59 113ZM64.6043 105.364C66.7976 100.951 70.8325 97.614 75.7033 96.3599C75.3352 97.0658 74.9433 97.8702 74.5519 98.7615C73.7413 100.607 72.9245 102.843 72.3269 105.364H64.6043ZM63.244 109.182H71.6422C71.4934 110.412 71.4091 111.687 71.4091 113C71.4091 114.313 71.4934 115.588 71.6422 116.818H63.244C62.9653 115.59 62.8182 114.312 62.8182 113C62.8182 111.688 62.9653 110.41 63.244 109.182ZM75.3349 113C75.3349 114.314 75.4309 115.591 75.5981 116.818H85.3569C85.5241 115.591 85.62 114.314 85.62 113C85.62 111.686 85.5241 110.409 85.3569 109.182H75.5981C75.4309 110.409 75.3349 111.686 75.3349 113ZM89.3124 109.182C89.4612 110.412 89.5455 111.687 89.5455 113C89.5455 114.313 89.4612 115.588 89.3124 116.818H96.756C97.0347 115.59 97.1818 114.312 97.1818 113C97.1818 111.688 97.0347 110.41 96.756 109.182H89.3124ZM84.5888 120.636H76.3663C76.8754 122.555 77.5183 124.283 78.166 125.758C78.877 127.377 79.5866 128.673 80.1138 129.558C80.2482 129.784 80.3705 129.982 80.4778 130.152C80.585 129.982 80.7073 129.784 80.8416 129.558C81.3688 128.673 82.0783 127.377 82.7893 125.758C83.4369 124.283 84.0798 122.555 84.5888 120.636ZM85.4226 129.309C85.7399 128.685 86.0716 127.993 86.403 127.238C87.2135 125.393 88.0302 123.157 88.6278 120.636H95.3957C93.3738 124.705 89.7868 127.858 85.4226 129.309ZM88.6278 105.364C88.0302 102.843 87.2135 100.607 86.403 98.7615C86.0716 98.0069 85.7399 97.3145 85.4226 96.6915C89.7868 98.142 93.3738 101.295 95.3957 105.364H88.6278ZM80.4778 95.8476C80.585 96.0175 80.7073 96.216 80.8416 96.4416C81.3688 97.3268 82.0783 98.6234 82.7893 100.242C83.4369 101.717 84.0798 103.445 84.5888 105.364H76.3663C76.8754 103.445 77.5183 101.717 78.166 100.242C78.877 98.6234 79.5866 97.3268 80.1138 96.4416C80.2482 96.216 80.3705 96.0175 80.4778 95.8476ZM64.6043 120.636H72.3269C72.9245 123.157 73.7413 125.393 74.5519 127.238C74.9433 128.13 75.3352 128.934 75.7033 129.64C70.8325 128.386 66.7976 125.049 64.6043 120.636Z" fill="#108060"/>
<path d="M110.767 123H114.862L117.9 110.576L120.683 123H124.81L129.705 104H125.801L122.73 117.113L119.787 104H116.365L113.198 117.113L110.287 104H106L110.767 123ZM135.915 123H140.009L143.048 110.576L145.831 123H149.957L154.852 104.001H150.949L147.878 117.115L144.935 104.001H141.513L138.345 117.115L135.435 104.001H131.149L135.915 123ZM161.063 123H165.158L168.197 110.576L170.979 123H175.106L180 104.001H176.098L173.027 117.115L170.084 104.001H166.662L163.494 117.115L160.584 104.001H156.298L161.063 123Z" fill="#42474C"/>
<defs>
<filter id="filter0_d_84481_1467" x="29" y="49" width="171" height="132" filterUnits="userSpaceOnUse" color-interpolation-filters="sRGB">
<feFlood flood-opacity="0" result="BackgroundImageFix"/>
<feColorMatrix in="SourceAlpha" type="matrix" values="0 0 0 0 0 0 0 0 0 0 0 0 0 0 0 0 0 0 127 0" result="hardAlpha"/>
<feOffset dy="2"/>
<feGaussianBlur stdDeviation="5"/>
<feColorMatrix type="matrix" values="0 0 0 0 0 0 0 0 0 0 0 0 0 0 0 0 0 0 0.3 0"/>
<feBlend mode="normal" in2="BackgroundImageFix" result="effect1_dropShadow_84481_1467"/>
<feBlend mode="normal" in="SourceGraphic" in2="effect1_dropShadow_84481_1467" result="shape"/>
</filter>
</defs>
</svg>
