<svg width="226" height="226" fill="none" xmlns="http://www.w3.org/2000/svg"><path d="M193.226 113.415c0 40.881-33.152 74.017-74.017 74.017-15.984 0-30.75-5.065-42.838-13.666a74.988 74.988 0 0 1-9.767-8.32c-13.205-13.37-21.378-31.755-21.378-52.031 0-40.848 33.102-73.983 73.983-73.983 40.881 0 74.017 33.102 74.017 73.983Z" fill="#F0F1F2"/><mask id="a" style="mask-type:alpha" maskUnits="userSpaceOnUse" x="32" y="39" width="162" height="149"><path d="M193.226 113.415c0 40.881-33.152 74.017-74.017 74.017-15.984 0-52.897 3.1-64.983-5.5-3.503-2.5-10.49-3.458-13.5-6.5-13.205-13.37-7.5-81.724-7.5-102 0-40.848 45.102-34 85.983-34 40.881 0 74.017 33.102 74.017 73.983Z" fill="#F0F1F2"/></mask><g filter="url(#b)" mask="url(#a)"><path d="M52.81 53.434h166.832c4.189 0 7.584 3.358 7.584 7.5v104.998c0 4.142-3.395 7.5-7.584 7.5H52.809c-4.188 0-7.583-3.358-7.583-7.5V60.934c0-4.142 3.395-7.5 7.583-7.5Z" fill="#5AB2AC"/><path d="M227.226 106.899h-182v20.878h182v-20.878Z" fill="#208B86"/><path d="M129.356 173.43V53.432h-21.089V173.43h21.089Z" fill="#208B86"/><path fill-rule="evenodd" clip-rule="evenodd" d="M120.73 95.546c0-12.994-10.65-23.528-23.787-23.528-13.137 0-23.787 10.534-23.787 23.528 0 12.995 10.65 23.529 23.787 23.529h23.787V95.546Zm-23.787-10.2c5.695 0 10.313 4.567 10.313 10.2v10.201H96.943c-5.695 0-10.313-4.567-10.313-10.2 0-5.634 4.618-10.201 10.313-10.201Z" fill="#208B86"/><path fill-rule="evenodd" clip-rule="evenodd" d="M116.896 95.546c0-12.994 10.65-23.528 23.787-23.528 13.137 0 23.786 10.534 23.786 23.528 0 12.995-10.649 23.529-23.786 23.529h-23.787V95.546Zm23.787-10.2c-5.696 0-10.313 4.567-10.313 10.2v10.201h10.313c5.695 0 10.312-4.567 10.312-10.2 0-5.634-4.617-10.201-10.312-10.201Z" fill="#208B86"/><path fill-rule="evenodd" clip-rule="evenodd" d="M77.881 153.537c22.832 0 39.557-21.139 39.557-44.856h-13.474c0 18.469-12.663 31.528-26.083 31.528v13.328ZM160.383 153.537c-23.563 0-41.488-20.761-41.488-44.856h13.474c0 18.09 13.192 31.528 28.014 31.528v13.328Z" fill="#208B86"/></g><defs><filter id="b" x="40.226" y="49.432" width="192" height="130" filterUnits="userSpaceOnUse" color-interpolation-filters="sRGB"><feFlood flood-opacity="0" result="BackgroundImageFix"/><feColorMatrix in="SourceAlpha" values="0 0 0 0 0 0 0 0 0 0 0 0 0 0 0 0 0 0 127 0" result="hardAlpha"/><feOffset dy="1"/><feGaussianBlur stdDeviation="2.5"/><feColorMatrix values="0 0 0 0 0 0 0 0 0 0 0 0 0 0 0 0 0 0 0.3 0"/><feBlend in2="BackgroundImageFix" result="effect1_dropShadow_2255_104219"/><feBlend in="SourceGraphic" in2="effect1_dropShadow_2255_104219" result="shape"/></filter></defs></svg>