<?xml version="1.0" encoding="UTF-8"?>
<svg id="Calque_2" data-name="Calque 2" xmlns="http://www.w3.org/2000/svg" viewBox="0 0 964.09 270.47">
  <defs>
    <style>
      .cls-1 {
        fill: #b6fd97;
      }

      .cls-1, .cls-2 {
        stroke-width: 0px;
      }

      .cls-2 {
        fill: #fff;
      }
    </style>
  </defs>
  <g id="Calque_1-2" data-name="Calque 1">
    <g>
      <g>
        <path class="cls-2" d="m246.44,124.72h-17.67v48.13h-25.57V41.24h52.64c29.89,0,48.32,15.98,48.32,42.49,0,19.36-11.84,33.46-30.46,38.73l38.54,50.38h-30.83l-34.97-48.13Zm-17.67-21.43h25.76c14.29,0,22.75-6.58,22.75-19.55s-8.65-19.74-22.75-19.74h-25.76v39.29Z"/>
        <path class="cls-2" d="m315.13,50.46c0-9.02,6.96-14.66,15.6-14.66s15.6,5.64,15.6,14.66-6.96,14.48-15.6,14.48-15.6-5.26-15.6-14.48Zm27.64,122.39h-24.25v-96.82h24.25v96.82Z"/>
        <path class="cls-2" d="m352.68,124.34c0-30.27,21.06-50.57,48.5-50.57,21.43,0,39.86,10.72,46.25,34.4l-21.43,7.71c-4.7-14.85-12.6-20.68-24.82-20.68s-23.5,9.59-23.5,29.14,11.28,29.14,23.5,29.14,20.12-5.64,24.82-20.49l21.43,7.71c-6.39,23.69-24.82,34.4-46.25,34.4-27.45,0-48.5-20.49-48.5-50.76Z"/>
        <path class="cls-2" d="m541.77,110.43v62.42h-24.25v-58.28c0-12.6-7.14-19.74-16.92-19.74-11.47,0-19.74,7.71-19.74,21.06v56.96h-24.25V41.24h24.25v47.38c6.02-10.53,15.6-14.85,26.51-14.85,19.74,0,34.4,14.48,34.4,36.66Z"/>
        <path class="cls-2" d="m614.26,110.24c-2.07-11.84-10.9-16.73-21.81-16.73-9.59,0-15.79,3.76-15.79,8.65,0,6.2,7.14,8.27,18.61,11.09l9.4,2.44c20.49,4.89,30.64,14.66,30.64,29.33,0,17.86-16.17,30.08-40.8,30.08-20.68,0-39.1-9.96-44.37-32.15l19.55-6.39c2.82,12.78,12.6,18.99,24.82,18.99,10.9,0,17.67-3.57,17.67-9.4s-5.26-8.08-17.11-11.09l-9.59-2.26c-22.37-5.45-31.77-14.85-31.77-30.08,0-17.3,15.23-28.95,38.73-28.95s39.29,11.84,41.92,31.21l-20.12,5.26Z"/>
        <path class="cls-2" d="m680.32,95.39v42.68c0,9.21,3.76,13.91,11.28,13.91h10.34v20.87h-13.35c-20.68,0-32.52-12.97-32.52-33.65v-43.8h-17.67v-19.36h17.67v-18.61l24.25-13.35v31.96h21.62v19.36h-21.62Z"/>
        <path class="cls-2" d="m804.4,124.34c0,30.08-21.24,50.76-50.2,50.76s-49.82-20.68-49.82-50.76,21.24-50.57,49.82-50.57,50.2,20.68,50.2,50.57Zm-75.2,0c0,18.61,10.72,29.33,25,29.33s25.38-10.72,25.38-29.33-10.9-28.95-25.38-28.95-25,10.53-25,28.95Z"/>
        <path class="cls-2" d="m868.79,73.77v25.94h-10.15c-11.28,0-19.36,8.08-19.36,22.37v50.76h-24.25v-96.82h24.25v13.91c5.45-11.28,14.29-16.17,24.44-16.17h5.08Z"/>
        <path class="cls-2" d="m963.9,129.79h-68.25c1.5,17.11,10.53,24.63,22.94,24.63,11.47,0,19.74-5.26,24.82-18.42l20.49,7.52c-7.52,21.81-24.63,31.58-44.37,31.58-28.58,0-48.5-20.3-48.5-50.76s19.55-50.57,47.38-50.57,45.68,20.3,45.68,50.38c0,1.69,0,3.95-.19,5.64Zm-67.49-16.54h42.86c-2.63-13.91-10.15-19.93-20.87-19.93-11.84,0-19.36,6.58-22,19.93Z"/>
      </g>
      <g id="Rug_Tufters">
        <path class="cls-1" d="m65.4.56c12.08-1.24,24.59-.57,36.1,3.56,15.73,5.2,29.29,16.29,38.06,30.29,7.4,11.93,11.4,26.01,11.03,40.05-.25,17.09-6.9,33.98-18.23,46.75-6.58,6.96-13.59,13.46-20.28,20.3-10.01,9.91-19.82,20.04-30.3,29.46,22.58.06,45.16.31,67.74.43-.07,13.06-.19,26.12-.3,39.18-14.95.04-29.9-.18-44.83-.39-10.97.04-22.25-2.87-30.99-9.72-13.39-9.69-20.73-26.87-18.9-43.25.98-10.53,6.24-20.19,13.13-28.03,10.49-11.31,22.21-21.42,32.97-32.47,6.44-5.97,9.85-14.75,9.94-23.46.44-15.48-10.8-30.49-25.9-34.13-11.94-3.45-25.57.41-34,9.47-6.45,6.47-9.81,15.61-9.88,24.68-.3,32.63-.6,65.26-.87,97.89-13.3-.22-26.59-.34-39.88-.41.52-32.29.41-64.61.95-96.9-.09-17.76,6.24-35.66,18.19-48.9C30.76,11.37,47.65,2.56,65.4.56Z"/>
      </g>
      <g>
        <path class="cls-2" d="m561.4,228.95c2.23,2.64,3.35,5.87,3.35,9.68,0,4.93-1.74,8.86-5.22,11.81-3.48,2.95-8.29,4.42-14.44,4.42h-26.59v-58.51h25.83c5.89,0,10.37,1.28,13.45,3.85,3.07,2.56,4.61,6.18,4.61,10.86,0,3.1-.91,5.8-2.74,8.11-1.83,2.31-4.32,3.87-7.47,4.69,3.91.76,6.98,2.46,9.22,5.1Zm-35.27-26.44v18.82h16.46c7.92,0,11.88-3.28,11.88-9.83,0-2.79-.98-4.99-2.93-6.59-1.96-1.6-4.86-2.4-8.72-2.4h-16.68Zm19.27,46.17c3.56,0,6.35-.91,8.38-2.74,2.03-1.83,3.05-4.44,3.05-7.85s-1.12-6.07-3.35-7.85c-2.23-1.78-5.38-2.67-9.45-2.67h-17.9v21.1h19.27Z"/>
        <path class="cls-2" d="m599.95,213.11h7.85l-17.45,47.69c-1.27,3.4-2.96,5.87-5.07,7.39-2.11,1.52-4.81,2.29-8.11,2.29h-4.8v-6.25h4.95c1.78,0,3.16-.41,4.15-1.22.99-.81,1.84-2.23,2.55-4.27l1.07-3.05-16.23-42.59h8.15l11.66,32.76.15,1.22,11.12-33.98Z"/>
        <path class="cls-2" d="m638.73,247.92c-5.13-5.54-7.69-13.05-7.69-22.55s2.59-16.94,7.77-22.32c5.18-5.38,11.83-8.08,19.96-8.08,6.35,0,11.69,1.47,16.04,4.42,4.34,2.95,7.35,7.11,9.03,12.49l-7.39.84c-3-7.42-8.94-11.12-17.83-11.12-6.04,0-10.84,2.03-14.4,6.09-3.56,4.06-5.33,9.85-5.33,17.37s1.78,13.62,5.33,17.87c3.56,4.24,8.41,6.36,14.55,6.36,9.85,0,16.02-4.37,18.51-13.1l7.01.84c-1.57,6.09-4.58,10.82-9.03,14.17-4.44,3.35-9.94,5.03-16.49,5.03-8.28,0-14.96-2.77-20.04-8.3Z"/>
        <path class="cls-2" d="m709.8,256.07c-6.6,0-11.76-2.01-15.47-6.02-3.71-3.91-5.56-9.27-5.56-16.07s1.85-12.06,5.56-16.07c3.71-4.01,8.86-6.02,15.47-6.02s11.76,2.01,15.47,6.02c3.71,4.01,5.56,9.37,5.56,16.07s-1.85,12.16-5.56,16.07c-3.71,4.01-8.86,6.02-15.47,6.02Zm0-6.4c4.37,0,7.69-1.4,9.98-4.19,2.23-2.84,3.35-6.68,3.35-11.5s-1.14-8.84-3.43-11.58c-2.29-2.74-5.59-4.11-9.9-4.11s-7.69,1.37-9.98,4.11c-2.29,2.74-3.43,6.6-3.43,11.58s1.14,8.71,3.43,11.5c2.29,2.79,5.61,4.19,9.98,4.19Z"/>
        <path class="cls-2" d="m797.72,215.92c2.69,2.64,4.04,6.2,4.04,10.67v28.26h-7.62v-26.21c0-3.3-.76-5.84-2.29-7.62-1.52-1.78-3.71-2.67-6.55-2.67-5.23,0-8.96,2.95-11.2,8.84v27.65h-7.62v-26.21c0-3.3-.76-5.84-2.29-7.62-1.52-1.78-3.71-2.67-6.55-2.67-5.23,0-8.96,2.95-11.2,8.84v27.65h-7.62v-41.75h6.93l.3,5.56c3.25-4.47,7.64-6.7,13.18-6.7,6.91,0,11.43,2.69,13.56,8.08,3.25-5.38,7.9-8.08,13.94-8.08,4.62,0,8.28,1.32,10.97,3.96Z"/>
        <path class="cls-2" d="m847.08,217.79c3.3,3.94,4.95,9.33,4.95,16.19s-1.7,11.91-5.1,15.92c-3.45,4.06-7.95,6.09-13.48,6.09-5.94,0-10.56-2.34-13.87-7.01l-.53,5.87h-6.78v-58.51h7.62v22.25c3.4-4.47,7.92-6.7,13.56-6.7s10.34,1.97,13.64,5.9Zm-5.87,27.85c2.13-2.84,3.2-6.73,3.2-11.66s-1.05-8.96-3.16-11.81c-2.11-2.84-5.09-4.27-8.95-4.27-3,0-5.61.85-7.85,2.55-2.23,1.7-3.81,4.2-4.72,7.5l.08,11.96c1.02,3.25,2.62,5.73,4.8,7.43,2.18,1.7,4.75,2.55,7.69,2.55,3.81,0,6.78-1.42,8.91-4.27Z"/>
        <path class="cls-2" d="m860.03,204.04v-9.29h7.62v9.29h-7.62Zm0,50.81v-41.75h7.62v41.75h-7.62Z"/>
        <path class="cls-2" d="m909.32,215.96c2.74,2.67,4.11,6.26,4.11,10.78v28.11h-7.62v-26.59c0-3.1-.77-5.52-2.32-7.28-1.55-1.75-3.72-2.63-6.51-2.63-5.23,0-8.96,2.95-11.2,8.84v27.65h-7.62v-41.75h6.93l.3,5.56c3.25-4.47,7.57-6.7,12.95-6.7,4.57,0,8.23,1.33,10.97,4Z"/>
        <path class="cls-2" d="m953.51,196.34h7.62v58.51h-6.78l-.53-5.87c-3.3,4.67-7.92,7.01-13.87,7.01-5.49,0-9.95-2.03-13.41-6.09-3.45-4.06-5.18-9.37-5.18-15.92s1.65-12.25,4.95-16.19c3.3-3.94,7.85-5.9,13.64-5.9s10.26,2.26,13.56,6.78v-22.32Zm-4.76,51c2.21-1.7,3.82-4.18,4.84-7.43l.08-11.88c-.91-3.3-2.5-5.82-4.76-7.54-2.26-1.73-4.89-2.59-7.89-2.59-3.81,0-6.77,1.42-8.88,4.27-2.11,2.84-3.16,6.78-3.16,11.81s1.05,8.81,3.16,11.66c2.11,2.84,5.07,4.27,8.88,4.27,2.95,0,5.52-.85,7.73-2.55Z"/>
      </g>
    </g>
  </g>
</svg>