<svg xmlns="http://www.w3.org/2000/svg" viewBox="0 0 158 130" width="200" height="230" fill="none"><path fill="#F0F1F2" d="M135.405 70.672c0 32.296-26.058 58.432-58.256 58.432s-58.255-26.136-58.255-58.432c0-32.296 26.057-58.433 58.255-58.433 32.198 0 58.256 26.137 58.256 58.433Z"/><mask id="a" width="119" height="130" x="18" y="0" maskUnits="userSpaceOnUse" style="mask-type:alpha"><path fill="#F0F1F2" d="M135.067 71.104c0 32.493-26.058 58.79-58.256 58.79s-58.255-26.297-58.255-58.79C18.556 0 9.109 0 76.81 0c72.032 0 58.256 5.561 58.256 71.104Z"/></mask><g mask="url(#a)"><g filter="url(#b)"><path fill="#fff" d="M123.469 129.894H30.341c-2.049 0-3.725-1.816-3.725-4.036V24.961c0-2.22 1.676-4.036 3.725-4.036h93.128c2.049 0 3.725 1.816 3.725 4.036v100.897c0 2.22-1.676 4.036-3.725 4.036Z"/></g><path stroke="#E8E9EB" stroke-dasharray="8 10" stroke-linecap="round" stroke-linejoin="round" stroke-width="4" d="M50.189 80.937h55.789v64.75H50.189z"/><path fill="#E8E9EB" d="M26.616 24.925a4 4 0 0 1 4-4h92.578a4 4 0 0 1 4 4v41.799H26.616V24.925Z"/><path stroke="#fff" stroke-linecap="round" stroke-width="4" d="M72.19 59.617h8.644"/><path fill="#828A91" d="M26.616 24.925a4 4 0 0 1 4-4h92.578a4 4 0 0 1 4 4v3.896H26.616v-3.896Z"/><path fill="#fff" d="M116.989 26.556h4.67v4.692h-4.67z"/></g><path fill="#1F2225" d="M77.15 93.571a3.163 3.163 0 0 1 3.148 3.159 3.163 3.163 0 0 1-3.149 3.158A3.163 3.163 0 0 1 74 96.73a3.163 3.163 0 0 1 3.15-3.159Zm0-3.158c-3.465 0-6.299 2.843-6.299 6.317s2.835 6.317 6.298 6.317c3.464 0 6.298-2.843 6.298-6.317 0-3.475-2.834-6.317-6.298-6.317Z"/><path stroke="#1F2225" stroke-linecap="square" stroke-width="4" d="M118.873 71.461V92.73a4 4 0 0 1-4 4h-33"/><g filter="url(#c)"><rect width="59.043" height="59.222" x="88.957" y="11.055" fill="#fff" rx="4"/></g><path stroke="#E9AF58" stroke-linecap="round" stroke-width="6" d="M96.517 18.95h16.221"/><path stroke="#F0F1F2" stroke-linecap="round" stroke-width="4" d="M95.93 30.637h27.725M95.93 36.736h27.725"/><path fill="#7FBEC6" d="M113.113 64.75h-17.61c-.569 0-1.035-.482-1.035-1.07V47.657c0-.588.466-1.068 1.036-1.068h17.609c.57 0 1.036.48 1.036 1.068v16.025c0 .587-.466 1.068-1.036 1.068Z"/><path fill="#3C8B96" d="m94.468 58.66 4.816-4.968c.622-.64 1.606-.64 2.176 0l4.816 4.968 2.849-2.938c.621-.64 1.606-.64 2.175 0l2.849 2.938v5.021c0 .588-.466 1.069-1.036 1.069h-17.61c-.569 0-1.035-.481-1.035-1.069v-5.02Z"/><path fill="#fff" d="M106.897 52.998c1.145 0 2.072-.957 2.072-2.137 0-1.18-.927-2.136-2.072-2.136-1.144 0-2.071.956-2.071 2.136 0 1.18.927 2.137 2.071 2.137Z"/><ellipse cx="31.883" cy="25.268" fill="#fff" rx="1.181" ry="1.184"/><ellipse cx="36.606" cy="25.268" fill="#fff" rx="1.181" ry="1.184"/><ellipse cx="41.33" cy="25.268" fill="#fff" rx="1.181" ry="1.184"/><path fill="#F0F1F2" d="M130.681 29.216h11.809v16.582h-11.809z"/><path fill="#B6BABF" d="M9.273 86.65H2.304c-.639 0-1.162-.55-1.162-1.221v-2.444c0-.672.523-1.222 1.162-1.222h6.97c.638 0 1.16.55 1.16 1.222v2.444c0 .672-.522 1.222-1.16 1.222Z"/><path fill="#fff" d="M22.05 85.428h-6.97c-.638 0-1.16-.55-1.16-1.222 0-.672.522-1.222 1.16-1.222h6.97c.639 0 1.161.55 1.161 1.222 0 .672-.522 1.222-1.161 1.222Z"/><path stroke="#1F2225" stroke-linecap="square" stroke-width="4" d="M7.32 92.522v26.006a4 4 0 0 0 4 4h23.552"/><path stroke="#1F2225" stroke-linecap="square" stroke-width="4" d="M7.32 85.126v14.951a4 4 0 0 0 4 4h3.871"/><rect width="40.936" height="14.213" y="78.963" fill="#E9AF58" rx="4"/><rect width="40.936" height="14.213" x="15.745" y="97.124" fill="#7FBEC6" rx="4"/><rect width="40.936" height="14.213" x="29.915" y="115.286" fill="#5AB2AC" rx="4"/><defs><filter id="b" width="110.578" height="118.969" x="21.616" y="16.925" color-interpolation-filters="sRGB" filterUnits="userSpaceOnUse"><feFlood flood-opacity="0" result="BackgroundImageFix"/><feColorMatrix in="SourceAlpha" result="hardAlpha" values="0 0 0 0 0 0 0 0 0 0 0 0 0 0 0 0 0 0 127 0"/><feOffset dy="1"/><feGaussianBlur stdDeviation="2.5"/><feColorMatrix values="0 0 0 0 0 0 0 0 0 0 0 0 0 0 0 0 0 0 0.3 0"/><feBlend in2="BackgroundImageFix" result="effect1_dropShadow_8772_95625"/><feBlend in="SourceGraphic" in2="effect1_dropShadow_8772_95625" result="shape"/></filter><filter id="c" width="79.043" height="79.222" x="78.957" y="3.055" color-interpolation-filters="sRGB" filterUnits="userSpaceOnUse"><feFlood flood-opacity="0" result="BackgroundImageFix"/><feColorMatrix in="SourceAlpha" result="hardAlpha" values="0 0 0 0 0 0 0 0 0 0 0 0 0 0 0 0 0 0 127 0"/><feOffset dy="2"/><feGaussianBlur stdDeviation="5"/><feColorMatrix values="0 0 0 0 0 0 0 0 0 0 0 0 0 0 0 0 0 0 0.3 0"/><feBlend in2="BackgroundImageFix" result="effect1_dropShadow_8772_95625"/><feBlend in="SourceGraphic" in2="effect1_dropShadow_8772_95625" result="shape"/></filter></defs></svg>
