<svg width="255" height="180" viewBox="0 0 255 180" fill="none" xmlns="http://www.w3.org/2000/svg">
<g clip-path="url(#clip0_708_17822)">
<rect x="137.008" y="-0.00683594" width="118.124" height="111.125" rx="6.2258" fill="#F7F7F7"/>
<rect x="0.152344" y="30.5322" width="128.029" height="80.39" rx="6.2258" fill="#F7F7F7"/>
<path d="M42.2783 62.6406L34.4053 73.84L33.488 75.1482L23.7227 71.3672V60.1261C23.7227 59.017 24.9245 58.3391 25.8953 58.8854C31.7935 62.2035 37.2425 63.3903 42.2783 62.6406Z" fill="#005BD3"/>
<path d="M62.4949 63.0794L49.7249 81.4311L33.4878 75.1485L34.4051 73.8403L42.2781 62.6409C45.4561 62.1664 48.4681 60.93 51.3211 58.9604L62.4949 63.0794Z" fill="white"/>
<path d="M49.7251 81.4316H23.7227V71.3679L33.4808 75.149H33.488L49.7251 81.4316Z" fill="#E8E9EB"/>
<path d="M70.5347 66.0484L59.8376 81.4314H55.5039L66.7499 64.6467L70.5347 66.0484Z" fill="white"/>
<path d="M94.6513 81.0647C94.5501 81.0863 94.449 81.1079 94.3479 81.1151C93.1417 81.3307 91.9138 81.4313 90.6859 81.4313H65.6152L74.8533 67.637L85.1387 71.4252C88.2157 72.561 90.8231 74.7103 92.5133 77.5137L94.6513 81.0647Z" fill="white"/>
<path d="M110.397 75.3719V75.9165L98.0967 80.1306C96.8746 80.5748 95.6265 80.9012 94.3531 81.1183C94.3509 81.1175 94.3502 81.1168 94.3481 81.1154L92.5134 77.514C90.8233 74.7106 88.2158 72.5613 85.1389 71.4255L74.8535 67.6373L74.4418 67.4863L70.7075 66.1134L70.5342 66.0487L66.7494 64.647L66.5471 64.5751L62.8201 63.2021L62.4951 63.0799L51.3213 58.961C52.9898 57.8188 54.5961 56.4321 56.1613 54.8061C56.5593 54.3928 57.1603 54.2411 57.7013 54.4352L108.498 72.6691C109.639 73.086 110.397 74.1643 110.397 75.3719Z" fill="#E8E9EB"/>
<path d="M66.749 64.6471L55.5029 81.4318H49.7246L62.4947 63.0801L62.8197 63.2023L66.5467 64.5752L66.749 64.6471Z" fill="#005BD3"/>
<path d="M74.8538 67.6365L65.6157 81.4308H59.8374L70.5345 66.0479L70.7079 66.1125L74.4421 67.4855L74.8538 67.6365Z" fill="#005BD3"/>
<path d="M110.397 75.917V79.4844C110.397 80.6633 109.675 81.72 108.584 82.1585L99.8231 85.6376C97.2662 86.6584 94.5359 87.1831 91.7767 87.1831H25.1672C24.3691 87.1831 23.7227 86.5398 23.7227 85.7455V81.3892L90.6861 81.4325C91.914 81.4325 93.1419 81.3318 94.3481 81.1162C94.4492 81.109 94.5503 81.0874 94.6515 81.0659C95.8216 80.8502 96.97 80.5411 98.0968 80.1314L110.397 75.917Z" fill="#B6BABF"/>
<path d="M63.7262 59.4462C63.7262 60.3841 62.98 61.1444 62.0594 61.1444C61.1388 61.1444 60.3926 60.3841 60.3926 59.4462C60.3926 58.5083 61.1388 57.748 62.0594 57.748C62.98 57.748 63.7262 58.5083 63.7262 59.4462Z" fill="#9FA5AB"/>
<path d="M70.3937 61.7104C70.3937 62.6483 69.6474 63.4086 68.7269 63.4086C67.8063 63.4086 67.0601 62.6483 67.0601 61.7104C67.0601 60.7725 67.8063 60.0122 68.7269 60.0122C69.6474 60.0122 70.3937 60.7725 70.3937 61.7104Z" fill="#9FA5AB"/>
<path d="M77.0612 63.9745C77.0612 64.9124 76.3149 65.6727 75.3944 65.6727C74.4738 65.6727 73.7275 64.9124 73.7275 63.9745C73.7275 63.0367 74.4738 62.2764 75.3944 62.2764C76.3149 62.2764 77.0612 63.0367 77.0612 63.9745Z" fill="#9FA5AB"/>
<path d="M83.7282 66.2389C83.7282 67.1768 82.9819 67.9371 82.0614 67.9371C81.1408 67.9371 80.3945 67.1768 80.3945 66.2389C80.3945 65.3011 81.1408 64.5408 82.0614 64.5408C82.9819 64.5408 83.7282 65.3011 83.7282 66.2389Z" fill="#9FA5AB"/>
<rect x="0.23584" y="121.501" width="127.45" height="58.2965" rx="6.2258" fill="#F7F7F7"/>
<path d="M105 138L30.5 141L30.1516 149.668L30.5 159L105 161V138Z" fill="#DEAC90"/>
<path d="M105 137.98L110 137V162L105 161.02V137.98Z" fill="#82543A"/>
<ellipse cx="2.5" cy="9" rx="2.5" ry="9" transform="matrix(-1 0 0 1 33 141)" fill="#B07D60"/>
<path d="M29.5538 145C29.5538 145 19.7206 145.492 18.7373 146.475C17.754 147.458 17.754 153.112 18.7373 153.85C19.7206 154.587 29.5538 155.325 29.5538 155.325C29.5538 155.325 30.5371 153.85 30.5371 150.162C30.5371 146.475 29.5538 145 29.5538 145Z" fill="#82543A"/>
<path d="M69.9409 147.263C72.273 147.263 72.4025 144.867 75.1232 144.867C77.9087 144.867 77.9087 147.569 80.6295 147.569C83.3502 147.569 83.4797 145.173 86.0709 145.173C88.6621 145.173 88.5973 147.569 91.2532 147.569C93.9092 147.569 94.1035 145.173 96.6299 145.173C99.1563 145.173 100.063 147.569 101.683 147.569" stroke="#82543A" stroke-width="2.13702" stroke-linecap="round" stroke-linejoin="round"/>
<rect x="137.01" y="121.501" width="118.124" height="58.2965" rx="6.2258" fill="#F7F7F7"/>
<g clip-path="url(#clip1_708_17822)">
<path d="M190.125 146.282L203.623 146.282L203.623 150.041L190.125 150.041L190.125 146.282Z" fill="#757A7F"/>
<path d="M227.277 139.075C227.277 139.075 231.933 144.744 232.473 144.92C233.013 145.097 236.591 145.252 236.972 145.625C237.152 145.801 237.201 147.575 237.077 148.763C237.026 149.251 236.614 149.628 236.114 149.645C235.39 149.672 234.371 149.788 233.733 150.206C232.653 150.91 230.892 154.667 230.892 154.667" fill="#42474C"/>
<path d="M203.32 149.414C203.32 157.15 209.726 163.42 217.629 163.42C225.532 163.42 231.937 157.15 231.937 149.414C231.937 141.678 225.53 135.408 217.629 135.408C212.996 135.408 208.878 137.562 206.263 140.903C204.417 143.262 203.32 146.213 203.32 149.414Z" fill="#42474C"/>
<path d="M207.454 140.517C207.454 140.517 204.513 144.548 203.336 144.356C202.159 144.164 200.003 142.438 196.475 142.822L196.672 146.469C196.672 146.469 199.855 145.79 201.18 149.155C202.775 153.204 204.346 154.887 204.934 155.847" fill="#42474C"/>
<path d="M167.605 139.069C167.605 139.069 162.949 144.739 162.409 144.915C161.869 145.091 158.291 145.246 157.91 145.619C157.73 145.796 157.681 147.57 157.805 148.757C157.856 149.245 158.268 149.622 158.768 149.64C159.492 149.666 160.51 149.783 161.149 150.2C162.229 150.905 163.989 154.661 163.989 154.661" fill="#42474C"/>
<path d="M191.562 149.407C191.562 157.143 185.157 163.413 177.254 163.413C169.351 163.413 162.946 157.143 162.946 149.407C162.946 141.671 169.351 135.4 177.254 135.4C181.887 135.4 186.005 137.555 188.62 140.895C190.466 143.254 191.562 146.205 191.562 149.407Z" fill="#42474C"/>
<path d="M191.562 149.407C191.562 157.143 185.157 163.413 177.254 163.413C169.351 163.413 162.946 157.143 162.946 149.407C162.946 141.671 169.351 135.4 177.254 135.4C181.887 135.4 186.005 137.555 188.62 140.895C190.466 143.254 191.562 146.205 191.562 149.407Z" fill="#42474C"/>
<path d="M187.425 140.51C187.425 140.51 190.366 144.541 191.541 144.349C192.717 144.157 194.874 142.43 198.404 142.814L198.208 146.461C198.208 146.461 195.024 145.783 193.699 149.148C192.105 153.196 190.533 154.879 189.945 155.839" fill="#42474C"/>
<path d="M239.541 162.567C238.153 163.307 233.915 162.011 232.504 161.577C229.322 160.603 223.053 158.055 223.118 155.587C223.165 153.838 226.379 152.647 229.545 153.075C235.898 153.933 241.933 161.29 239.541 162.566L239.541 162.567Z" fill="#42474C"/>
<path d="M155.009 162.497C156.397 163.237 160.635 161.94 162.046 161.507C165.228 160.532 171.497 157.985 171.432 155.517C171.385 153.767 168.171 152.576 165.005 153.004C158.652 153.862 152.617 161.22 155.009 162.495L155.009 162.497Z" fill="#42474C"/>
<path d="M187.804 149.257C187.804 155.039 182.966 159.725 176.998 159.725C171.03 159.725 166.192 155.039 166.192 149.257C166.192 143.475 171.03 138.789 176.998 138.789C180.497 138.789 183.606 140.399 185.581 142.896C186.976 144.659 187.804 146.865 187.804 149.257Z" fill="url(#paint0_linear_708_17822)"/>
<path d="M228.325 149.257C228.325 155.039 223.488 159.725 217.519 159.725C211.551 159.725 206.714 155.039 206.714 149.257C206.714 143.475 211.551 138.789 217.519 138.789C221.018 138.789 224.128 140.399 226.103 142.896C227.497 144.659 228.325 146.865 228.325 149.257Z" fill="url(#paint1_linear_708_17822)"/>
</g>
<path d="M180.21 20.887C180.21 20.887 186.745 20.0809 194.79 21.2147C202.835 22.3484 211.401 25.9369 211.401 25.9369C211.401 25.9369 205.206 32.406 205.206 44.6142C205.206 56.8224 218.53 55.7759 218.53 71.4721C218.53 87.1684 210.958 88.9124 210.958 88.9124H181.374C181.374 88.9124 174.566 86.3331 174.566 71.6833C174.566 57.0335 187.127 55.4271 187.127 44.6142C187.127 33.8012 180.21 20.887 180.21 20.887Z" fill="#033C39"/>
<path d="M180.21 20.8877C180.21 20.8877 187.127 24.7991 195.172 25.9469C203.216 27.0947 211.401 25.9376 211.401 25.9376C211.401 25.9376 205.46 31.996 205.46 44.355C205.46 56.7139 218.53 55.9615 218.53 71.8516C218.53 87.7417 210.958 89.5072 210.958 89.5072H181.374C181.374 89.5072 174.566 86.5147 174.566 71.684C174.566 56.8532 187.127 55.6084 187.127 44.6619C187.127 33.7154 180.21 20.8877 180.21 20.8877Z" fill="#00A198"/>
<path fill-rule="evenodd" clip-rule="evenodd" d="M193.32 40.1101C196.361 36.7371 199.749 32.9812 203.508 28.743C204.228 27.9314 204.917 27.1491 205.578 26.3953C208.975 26.2544 211.399 25.9373 211.399 25.9373C211.399 25.9373 205.458 32.0333 205.458 44.3546C205.458 50.1287 208.277 53.0624 211.273 56.1801C214.67 59.7153 218.295 63.4871 218.295 71.905C218.295 87.7467 210.764 89.5069 210.764 89.5069H181.337C181.337 89.5069 173.97 87.0633 173.97 72.2777C173.97 64.3247 177.757 60.1343 181.257 56.2614C183.715 53.5416 186.031 50.9784 186.795 47.3786C188.767 45.1588 190.937 42.7519 193.32 40.1101Z" fill="#0C6A64"/>
<path fill-rule="evenodd" clip-rule="evenodd" d="M205.481 45.2363C205.758 50.4502 208.488 53.2199 211.379 56.1538C214.838 59.6633 218.529 63.4077 218.529 71.8513C218.529 87.7414 210.957 89.507 210.957 89.507H185.95C198.414 83.8796 204.124 58.0835 205.449 45.2129C205.46 45.2207 205.471 45.2285 205.481 45.2363Z" fill="#033C39"/>
<path fill-rule="evenodd" clip-rule="evenodd" d="M105.133 152.971H30.2671L30.5002 159L105 161L105.133 152.971Z" fill="#B07D60" fill-opacity="0.5"/>
</g>
<defs>
<linearGradient id="paint0_linear_708_17822" x1="176.998" y1="138.789" x2="176.998" y2="159.725" gradientUnits="userSpaceOnUse">
<stop stop-color="#2E2E2F"/>
<stop offset="1" stop-color="#141617"/>
</linearGradient>
<linearGradient id="paint1_linear_708_17822" x1="217.519" y1="138.789" x2="217.519" y2="159.725" gradientUnits="userSpaceOnUse">
<stop stop-color="#2E2E2F"/>
<stop offset="1" stop-color="#141617"/>
</linearGradient>
<clipPath id="clip0_708_17822">
<rect width="255" height="180" fill="white"/>
</clipPath>
<clipPath id="clip1_708_17822">
<rect width="85.6048" height="28.0161" fill="white" transform="matrix(-1 -8.74228e-08 -8.74228e-08 1 240.074 135.404)"/>
</clipPath>
</defs>
</svg>
