<svg width="226" height="226" fill="none" xmlns="http://www.w3.org/2000/svg"><path d="M187.191 113.883c0 11.11-2.44 21.64-6.83 31.09-11.73 25.35-37.39 42.91-67.17 42.91-29.77 0-55.43-17.56-67.17-42.91-4.39-9.45-6.83-19.98-6.83-31.09 0-40.88 33.12-74 74-74 40.89 0 74 33.12 74 74z" fill="#F0F1F2"/><clipPath id="prefix__a" clipPathUnits="userSpaceOnUse"><path d="M187.191 114.112c0 11.075-2.429 21.573-6.798 30.993-11.674 25.272-37.212 42.778-66.85 42.778-29.629 0-55.37-16.735-67.055-42.007-4.369-9.42-6.797-19.918-6.797-30.993-2.488-87.23-2.285-88 73.852-88 73.648 0 73.648 0 73.648 87.229z" fill="#fff"/></clipPath><g clip-path="url(#prefix__a)"><g filter="url(#prefix__prefix__prefix__filter0_d)"><path d="M56 42a3 3 0 013-3h110a3 3 0 013 3v146H56V42z" fill="#7FBEC6"/></g><path d="M172 118v45.96C158.46 181.05 137.51 192 114 192c-23.51 0-44.45-10.95-58-28.04V118h116z" fill="#fff"/><path d="M98.898 143h30v21h-30v-21z" fill="#fff"/><path d="M74.898 153.5c0-5.799 4.7-10.5 10.5-10.5h13.5v21h-13.5c-5.8 0-10.5-4.701-10.5-10.5zm78.102 0c0 5.799-4.701 10.5-10.5 10.5H129v-21h13.5c5.799 0 10.5 4.701 10.5 10.5z" fill="#D2D5D9"/><path fill-rule="evenodd" clip-rule="evenodd" d="M82.898 154a1 1 0 011-1h8a1 1 0 010 2h-8a1 1 0 01-1-1zM140 149a1 1 0 011 1v8a1 1 0 01-2 0v-8a1 1 0 011-1z" fill="#fff"/><path fill-rule="evenodd" clip-rule="evenodd" d="M134.898 154a1 1 0 011-1h8a1 1 0 010 2h-8a1 1 0 01-1-1z" fill="#fff"/><path d="M113.137 155.383h-1.364v-6.248h-1.837c-.341.737-1.001 1.133-1.705 1.21v1.87c.638-.022 1.199-.264 1.408-.583v3.751h-1.375V157h4.873v-1.617zm6.79-4.961v-1.287h-5.599v1.771h3.322L115.219 157h2.167l2.541-6.578z" fill="#6B7177"/><path d="M135.661 75.01H90.936s-13.678 35.378-3.218 53.738a4.207 4.207 0 003.656 2.122h43.847a4.205 4.205 0 003.655-2.122c10.46-18.363-3.215-53.738-3.215-53.738z" fill="#6D493C"/><path fill-rule="evenodd" clip-rule="evenodd" d="M113.384 96.031a1.5 1.5 0 011.5 1.5v2.803a1.5 1.5 0 01-3 0v-2.803a1.5 1.5 0 011.5-1.5z" fill="#fff"/><path d="M104 66h-5.742l-1.253-10.466c-.035-.282.122-.534.33-.534h5.061c.163 0 .306.162.33.386L104 66zm18 0h5.739l1.256-10.466c.035-.282-.125-.534-.33-.534h-5.061c-.163 0-.306.162-.33.386L122 66z" fill="#6D493C"/><path d="M91.398 131a4.205 4.205 0 01-3.656-2.122c-1.797-3.155-2.91-6.983-3.473-10.878h58.06c-.564 3.895-1.631 7.723-3.429 10.878a4.203 4.203 0 01-3.655 2.122H91.398z" fill="#975D48"/><path d="M114.399 90.911s8.149.134 15.12-.943c5.297-.818 9.915-2.802 9.762-3.392-1.805-6.865-3.623-11.566-3.623-11.566h-21.259v15.9z" fill="#50372E"/><path d="M117.594 58.862c-1.015-2.33-4.354-2.517-4.354-2.517s-3.339.183-4.354 2.517l-.333 1.722s2.024-.766 4.681-.766c2.656 0 4.68.766 4.68.766l-.32-1.722z" fill="#6D493C"/><path d="M113.132 56.348h-.088c-5.31.098-9.608 4.613-9.925 10.293h4.677c.167-5.654 2.455-10.123 5.287-10.274 2.833.145 5.121 4.62 5.287 10.274h4.671c-.31-5.68-4.605-10.195-9.909-10.293z" fill="#BF8563"/><path d="M118.982 91H108.19c-7.996 0-14.984-5.46-17.026-13.299l-3.2-10.211c-.327-1.26.606-2.49 1.888-2.49l47.091.022c1.282 0 2.215 1.23 1.889 2.49l-2.837 10.183C133.966 85.536 126.972 91 118.982 91z" fill="#975D48"/><path d="M115.514 108.905L113.5 111l-2.014-2.095c-.969-1.006-1.486-2.196-1.486-3.411V91h7v14.494c0 1.215-.517 2.405-1.486 3.411zM117 65h-7v26h7V65z" fill="#BF8563"/><path fill-rule="evenodd" clip-rule="evenodd" d="M113.398 98a1 1 0 011 1v2a1 1 0 01-2 0v-2a1 1 0 011-1z" fill="#E9AF58"/><path fill-rule="evenodd" clip-rule="evenodd" d="M110 99v4h-2v-4.583c0-.81.666-1.417 1.429-1.417h8.142c.763 0 1.429.608 1.429 1.417V103h-2v-4h-7z" fill="#E9AF58"/></g><defs><filter id="prefix__prefix__prefix__filter0_d" x="46" y="31" width="136" height="169" filterUnits="userSpaceOnUse" color-interpolation-filters="sRGB"><feFlood flood-opacity="0" result="BackgroundImageFix"/><feColorMatrix in="SourceAlpha" values="0 0 0 0 0 0 0 0 0 0 0 0 0 0 0 0 0 0 127 0"/><feOffset dy="2"/><feGaussianBlur stdDeviation="5"/><feColorMatrix values="0 0 0 0 0 0 0 0 0 0 0 0 0 0 0 0 0 0 0.3 0"/><feBlend in2="BackgroundImageFix" result="effect1_dropShadow"/><feBlend in="SourceGraphic" in2="effect1_dropShadow" result="shape"/></filter></defs></svg>
